HIERARCHY
ROOT Hips
{
	OFFSET 0.000000 0.000000 0.000000
	CHANNELS 6 Xposition Yposition Zposition Zrotation Yrotation Xrotation 
	JOINT LHipJoint
	{
		OFFSET 0.000000 0.000000 0.000000
		CHANNELS 3 Zrotation Yrotation Xrotation
		JOINT LeftUpLeg
		{
			OFFSET 1.363060 -1.794630 0.839290
			CHANNELS 3 Zrotation Yrotation Xrotation
			JOINT LeftLeg
			{
				OFFSET 2.448110 -6.726130 0.000000
				CHANNELS 3 Zrotation Yrotation Xrotation
				JOINT LeftFoot
				{
					OFFSET 2.562200 -7.039590 0.000000
					CHANNELS 3 Zrotation Yrotation Xrotation
					JOINT LeftToeBase
					{
						OFFSET 0.157640 -0.433110 2.322550
						CHANNELS 3 Zrotation Yrotation Xrotation
						End Site
						{
							OFFSET 0.000000 0.000000 0.000000
						}
					}
				}
			}
		}
	}
	JOINT RHipJoint
	{
		OFFSET 0.000000 0.000000 0.000000
		CHANNELS 3 Zrotation Yrotation Xrotation
		JOINT RightUpLeg
		{
			OFFSET -1.305520 -1.794630 0.839290
			CHANNELS 3 Zrotation Yrotation Xrotation
			JOINT RightLeg
			{
				OFFSET -2.542530 -6.985550 0.000000
				CHANNELS 3 Zrotation Yrotation Xrotation
				JOINT RightFoot
				{
					OFFSET -2.568260 -7.056230 0.000000
					CHANNELS 3 Zrotation Yrotation Xrotation
					JOINT RightToeBase
					{
						OFFSET -0.164730 -0.452590 2.363150
						CHANNELS 3 Zrotation Yrotation Xrotation
						End Site
						{
							OFFSET 0.000000 0.000000 0.000000
						}
					}
				}
			}
		}
	}
	JOINT LowerBack
	{
		OFFSET 0.000000 0.000000 0.000000
		CHANNELS 3 Zrotation Yrotation Xrotation
		JOINT Spine
		{
			OFFSET 0.028270 2.035590 -0.193380
			CHANNELS 3 Zrotation Yrotation Xrotation
			JOINT Spine1
			{
				OFFSET 0.056720 2.048850 -0.042750
				CHANNELS 3 Zrotation Yrotation Xrotation
				JOINT Neck
				{
					OFFSET 0.000000 0.000000 0.000000
					CHANNELS 3 Zrotation Yrotation Xrotation
					JOINT Neck1
					{
						OFFSET -0.054170 1.746240 0.172020
						CHANNELS 3 Zrotation Yrotation Xrotation
						JOINT Head
						{
							OFFSET 0.104070 1.761360 -0.123970
							CHANNELS 3 Zrotation Yrotation Xrotation
							End Site
							{
								OFFSET 0.000000 0.000000 0.000000
							}
						}
					}
				}
				JOINT LeftShoulder
				{
					OFFSET 0.000000 0.000000 0.000000
					CHANNELS 3 Zrotation Yrotation Xrotation
					JOINT LeftArm
					{
						OFFSET 3.362410 1.200890 -0.311210
						CHANNELS 3 Zrotation Yrotation Xrotation
						JOINT LeftForeArm
						{
							OFFSET 4.983000 -0.000000 -0.000000
							CHANNELS 3 Zrotation Yrotation Xrotation
							JOINT LeftHand
							{
								OFFSET 3.483560 -0.000000 -0.000000
								CHANNELS 3 Zrotation Yrotation Xrotation
								JOINT LeftFingerBase
								{
									OFFSET 0.000000 0.000000 0.000000
									CHANNELS 3 Zrotation Yrotation Xrotation
									JOINT LeftHandIndex1
									{
										OFFSET 0.715260 -0.000000 -0.000000
										CHANNELS 3 Zrotation Yrotation Xrotation
										End Site
										{
											OFFSET 0.000000 0.000000 0.000000
										}
									}
								}
								JOINT LThumb
								{
									OFFSET 0.000000 0.000000 0.000000
									CHANNELS 3 Zrotation Yrotation Xrotation
									End Site
									{
										OFFSET 0.000000 0.000000 0.000000
									}
								}
							}
						}
					}
				}
				JOINT RightShoulder
				{
					OFFSET 0.000000 0.000000 0.000000
					CHANNELS 3 Zrotation Yrotation Xrotation
					JOINT RightArm
					{
						OFFSET -3.136600 1.374050 -0.404650
						CHANNELS 3 Zrotation Yrotation Xrotation
						JOINT RightForeArm
						{
							OFFSET -5.241900 -0.000000 -0.000000
							CHANNELS 3 Zrotation Yrotation Xrotation
							JOINT RightHand
							{
								OFFSET -3.444170 -0.000000 -0.000000
								CHANNELS 3 Zrotation Yrotation Xrotation
								JOINT RightFingerBase
								{
									OFFSET 0.000000 0.000000 0.000000
									CHANNELS 3 Zrotation Yrotation Xrotation
									JOINT RightHandIndex1
									{
										OFFSET -0.622530 -0.000000 -0.000000
										CHANNELS 3 Zrotation Yrotation Xrotation
										End Site
										{
											OFFSET 0.000000 0.000000 0.000000
										}
									}
								}
								JOINT RThumb
								{
									OFFSET 0.000000 0.000000 0.000000
									CHANNELS 3 Zrotation Yrotation Xrotation
									End Site
									{
										OFFSET 0.000000 0.000000 0.000000
									}
								}
							}
						}
					}
				}
			}
		}
	}
}
MOTION
Frames: 9
Frame Time: 0.008333
-2.072370 16.697667 -2.363459 -158.982617 78.603118 -152.520139 -13.071162 4.560038 -0.258972 -6.072985 5.508414 -1.204266 -1.000430 2.999690 38.454424 0.184590 -2.474667 0.706508 -0.309000 0.000000 -74.068600 7.429258 -0.281518 1.359917 11.231582 3.382187 -31.230496 2.683700 -1.315144 23.447504 0.960543 6.015257 5.059892 0.842000 -0.000001 -53.819600 8.911144 -6.092584 -1.789327 1.452833 -6.755173 -3.262353 -5.765248 -6.811469 0.171651 13.264694 -20.142183 -10.005180 -2.520796 -0.169016 -0.573420 0.000000 0.000000 0.000000 14.340472 0.553447 -1.728192 -37.129655 -7.045491 6.688887 178.739907 -75.358238 179.891603 11.881638 -0.204904 -0.077340 -0.152632 0.536503 -0.000000 0.000000 0.000000 0.000000 0.000000 0.000000 0.000000 15.536952 -18.351688 1.887018 54.565806 -24.178759 -12.030637 2.648600 49.986907 -0.005821 -4.288222 -2.550915 0.099454 0.153798 -0.003750 -0.000000 0.000000 0.000000 0.000000 0.000000 0.000000 0.000000 
-1.938488 16.656141 -2.396087 -157.594017 78.061214 -151.489206 -13.386929 4.580886 -0.494785 -4.820433 6.890623 -2.361428 -0.781492 3.209530 41.291967 0.218739 -2.925771 2.388250 -0.479200 0.000000 -75.685700 7.321637 -0.358064 1.078591 12.068981 2.609572 -31.369955 2.641885 -1.479033 25.614287 0.910892 5.970667 3.725336 0.740901 0.000000 -53.076100 9.382245 -6.053610 -1.313092 1.486820 -6.739755 -3.207717 -6.024775 -6.796761 0.040234 13.587687 -19.719335 -10.091928 -2.704754 -0.182956 -0.605209 0.000000 0.000000 0.000000 13.415385 0.605938 -1.553343 -37.527258 -6.643392 7.064761 178.793081 -75.244549 179.889202 12.246574 -0.426824 -0.103915 -0.170058 0.537586 -0.000000 0.000000 0.000000 0.000000 0.000000 0.000000 0.000000 16.384417 -17.932819 1.901940 54.860941 -22.940582 -11.536633 2.639961 49.628162 -0.005196 -5.022546 -2.332672 0.105853 0.151251 -0.003896 -0.000000 0.000000 0.000000 0.000000 0.000000 0.000000 0.000000 
-1.810538 16.614094 -2.427424 -156.323535 77.454940 -150.600879 -13.695838 4.566074 -0.754758 -3.515381 8.293918 -3.555133 -0.556291 3.416615 44.183750 0.284067 -3.220633 4.102639 -0.664800 -0.000000 -75.905700 7.205897 -0.438703 0.791247 12.910837 1.842714 -31.376452 2.611938 -1.621425 27.605505 0.848779 5.850490 2.302977 0.622200 -0.000000 -52.394300 9.841126 -6.007547 -0.791812 1.511776 -6.713203 -3.151417 -6.300755 -6.771644 -0.122441 13.926421 -19.212823 -10.144657 -2.903577 -0.198380 -0.629025 0.000000 0.000000 0.000000 12.471710 0.561661 -1.372137 -38.043801 -6.230796 7.434954 178.856185 -75.278401 179.886864 12.631330 -0.689884 -0.136776 -0.187515 0.538867 -0.000000 0.000000 0.000000 0.000000 0.000000 0.000000 0.000000 17.281574 -17.440223 1.930939 55.241326 -21.635850 -11.006975 2.626667 49.150880 -0.004587 -5.899476 -2.095706 0.111150 0.148100 -0.004521 -0.000000 0.000000 0.000000 0.000000 0.000000 0.000000 0.000000 
-1.688316 16.571758 -2.457298 -155.164459 76.798605 -149.840667 -13.992260 4.510415 -1.038639 -2.180600 9.691203 -4.773065 -0.330675 3.622618 47.109982 0.380678 -3.260128 5.743380 -0.826100 0.000000 -74.744800 7.080540 -0.524184 0.510141 13.742703 1.138871 -31.243377 2.591211 -1.742900 29.395877 0.773530 5.645613 0.853144 0.495600 0.000001 -51.758300 10.282126 -5.951791 -0.234915 1.527685 -6.672316 -3.095701 -6.586804 -6.733196 -0.317687 14.272298 -18.611199 -10.153474 -3.114930 -0.215128 -0.642166 0.000000 0.000000 0.000000 11.524752 0.415832 -1.182733 -38.705583 -5.779375 7.791976 178.930066 -75.498724 179.885099 12.991489 -0.979641 -0.174239 -0.203537 0.539584 -0.000000 0.000000 0.000000 0.000000 0.000000 0.000000 0.000000 18.216272 -16.860503 1.975317 55.695223 -20.274165 -10.427204 2.607192 48.564063 -0.004132 -6.888952 -1.877445 0.115639 0.144110 -0.005656 -0.000000 0.000000 0.000000 0.000000 0.000000 0.000000 0.000000 
-1.571417 16.529450 -2.485868 -154.091784 76.101275 -149.172605 -14.274141 4.410399 -1.343769 -0.830404 11.058007 -6.016165 -0.109068 3.831066 50.060948 0.504470 -2.959366 7.183256 -0.912000 0.000001 -72.150600 6.941466 -0.615604 0.248282 14.561607 0.554700 -30.972601 2.577448 -1.844071 30.966070 0.683403 5.336695 -0.571798 0.368900 -0.000001 -51.151900 10.706388 -5.883792 0.343572 1.536909 -6.614492 -3.042954 -6.873360 -6.679132 -0.542842 14.615952 -17.911107 -10.113377 -3.334077 -0.232760 -0.643233 0.000000 0.000000 0.000000 10.590670 0.179185 -0.983802 -39.550928 -5.280214 8.128784 179.013913 -75.968171 179.884338 13.285793 -1.286219 -0.214319 -0.216607 0.539100 -0.000000 0.000000 0.000000 0.000000 0.000000 0.000000 0.000000 19.170455 -16.188903 2.035299 56.205968 -18.851130 -9.781724 2.581125 47.872704 -0.003948 -7.941225 -1.708048 0.120720 0.139129 -0.007457 -0.000000 0.000000 0.000000 0.000000 0.000000 0.000000 0.000000 
-1.459336 16.487672 -2.513287 -153.098919 75.369602 -148.579557 -14.538364 4.265332 -1.665324 0.514232 12.367572 -7.285838 0.106028 4.046223 53.022217 0.649174 -2.256051 8.291199 -0.873400 0.000000 -68.160999 6.787114 -0.712135 0.015461 15.364263 0.131313 -30.574180 2.567828 -1.926325 32.310357 0.576272 4.905166 -1.933127 0.249601 0.000000 -50.559200 11.113279 -5.802045 0.929329 1.541456 -6.538251 -2.994962 -7.151651 -6.608120 -0.793493 14.950091 -17.115182 -10.022901 -3.556215 -0.250780 -0.631744 0.000000 0.000000 0.000000 9.676885 -0.133087 -0.773337 -40.603405 -4.733633 8.432257 179.104866 -76.747013 179.884874 13.485739 -1.598283 -0.254732 -0.225551 0.536731 -0.000000 0.000000 0.000000 0.000000 0.000000 0.000000 0.000000 20.130289 -15.427028 2.109669 56.750853 -17.356982 -9.051018 2.548767 47.086816 -0.004148 -8.997576 -1.607427 0.128094 0.133179 -0.010131 -0.000000 0.000000 0.000000 0.000000 0.000000 0.000000 0.000000 
-1.351528 16.447204 -2.539099 -152.251612 74.613463 -148.120994 -14.772916 4.079338 -1.995834 1.800585 13.582084 -8.570996 0.314702 4.269831 55.956941 0.811257 -1.105525 8.984881 -0.677900 -0.000000 -63.261500 6.628570 -0.807375 -0.186379 16.122478 -0.128069 -30.068390 2.557282 -1.992618 33.449215 0.451426 4.352317 -3.213970 0.145800 0.000000 -49.962600 11.478761 -5.708482 1.511945 1.537759 -6.444468 -2.952986 -7.417160 -6.520910 -1.069020 15.276431 -16.225000 -9.878623 -3.779175 -0.268938 -0.606566 0.000000 0.000000 0.000000 8.791940 -0.526455 -0.548795 -41.865665 -4.113756 8.674833 179.198386 -77.879603 179.886863 13.578818 -1.906444 -0.293190 -0.229605 0.531646 -0.000000 0.000000 0.000000 0.000000 0.000000 0.000000 0.000000 21.101945 -14.575762 2.196256 57.298024 -15.796880 -8.211009 2.510459 46.232495 -0.004795 -9.999795 -1.585040 0.139761 0.126467 -0.013833 -0.000000 0.000000 0.000000 0.000000 0.000000 0.000000 0.000000 
-1.247361 16.408687 -2.564289 -151.493193 73.825142 -147.726594 -14.985490 3.854343 -2.325841 3.036167 14.686983 -9.897976 0.518850 4.505231 58.859821 0.984276 0.453545 9.156257 -0.332800 -0.000000 -57.290600 6.455996 -0.903768 -0.349144 16.863137 -0.195302 -29.473114 2.546553 -2.043627 34.378286 0.304816 3.647738 -4.392922 0.060200 0.000000 -49.362201 11.824768 -5.600387 2.070626 1.533485 -6.332292 -2.917674 -7.658051 -6.416483 -1.353785 15.583623 -15.262472 -9.693667 -3.994599 -0.286325 -0.571172 0.000000 0.000000 0.000000 7.935743 -0.946548 -0.310776 -43.367030 -3.490623 8.840338 179.285825 -79.457164 179.890111 13.578351 -2.219068 -0.330001 -0.228746 0.523867 -0.000000 0.000000 0.000000 0.000000 0.000000 0.000000 0.000000 22.056570 -13.656361 2.289771 57.827278 -14.134172 -7.254548 2.469036 45.310148 -0.005922 -10.879452 -1.629567 0.155624 0.119427 -0.018844 -0.000000 0.000000 0.000000 0.000000 0.000000 0.000000 0.000000 
-1.146237 16.373141 -2.588344 -150.911819 73.010060 -147.481123 -15.163452 3.599771 -2.643537 4.158746 15.641532 -11.256886 0.720280 4.748659 61.680166 1.168943 2.374521 8.808505 0.122500 0.000000 -50.951100 6.286272 -0.993387 -0.479278 17.551984 -0.111454 -28.818184 2.531482 -2.082601 35.134598 0.137177 2.812136 -5.477371 -0.001900 0.000000 -48.754199 12.120570 -5.481440 2.596015 1.523233 -6.204618 -2.889381 -7.872996 -6.297254 -1.645243 15.876423 -14.236039 -9.469361 -4.201628 -0.302823 -0.525617 0.000000 0.000000 0.000000 7.117796 -1.401267 -0.058723 -45.097285 -2.852050 8.883734 179.358617 -81.512206 179.894395 13.512170 -2.539442 -0.365465 -0.223345 0.512902 -0.000000 0.000000 0.000000 0.000000 0.000000 0.000000 0.000000 23.005688 -12.676382 2.385985 58.307896 -12.378613 -6.167642 2.425862 44.352929 -0.007482 -11.589667 -1.723411 0.174487 0.112541 -0.025169 -0.000000 0.000000 0.000000 0.000000 0.000000 0.000000 0.000000 
